<svg width="768" height="1024" viewBox="0 0 768 1024" fill="none" xmlns="http://www.w3.org/2000/svg">
<path d="M0 0H768V1024H0V0Z" fill="#BAA46A"/>
<rect x="33" y="139" width="701" height="746" fill="#5B5B5B"/>
<rect x="43" y="149" width="681" height="724" fill="#659F66"/>
<g filter="url(#filter0_i)">
<rect x="636" y="160" width="75" height="81" fill="#528253"/>
<rect x="636" y="249" width="75" height="81" fill="#528253"/>
<rect x="636" y="337" width="75" height="81" fill="#528253"/>
<rect x="636" y="426" width="75" height="81" fill="#528253"/>
<rect x="636" y="516" width="75" height="81" fill="#528253"/>
<rect x="636" y="605" width="75" height="81" fill="#528253"/>
<rect x="636" y="693" width="75" height="81" fill="#528253"/>
<rect x="636" y="782" width="75" height="81" fill="#528253"/>
<rect x="553" y="160" width="75" height="81" fill="#528253"/>
<rect x="553" y="249" width="75" height="81" fill="#528253"/>
<rect x="553" y="337" width="75" height="81" fill="#528253"/>
<rect x="553" y="426" width="75" height="81" fill="#528253"/>
<rect x="553" y="516" width="75" height="81" fill="#528253"/>
<rect x="553" y="605" width="75" height="81" fill="#528253"/>
<rect x="553" y="693" width="75" height="81" fill="#528253"/>
<rect x="553" y="782" width="75" height="81" fill="#528253"/>
<rect x="470" y="159" width="75" height="81" fill="#528253"/>
<rect x="470" y="248" width="75" height="81" fill="#528253"/>
<rect x="470" y="336" width="75" height="81" fill="#528253"/>
<rect x="470" y="425" width="75" height="81" fill="#528253"/>
<rect x="470" y="515" width="75" height="81" fill="#528253"/>
<rect x="470" y="604" width="75" height="81" fill="#528253"/>
<rect x="470" y="692" width="75" height="81" fill="#528253"/>
<rect x="470" y="781" width="75" height="81" fill="#528253"/>
<rect x="387" y="160" width="75" height="81" fill="#528253"/>
<rect x="387" y="249" width="75" height="81" fill="#528253"/>
<rect x="387" y="337" width="75" height="81" fill="#528253"/>
<rect x="387" y="426" width="75" height="81" fill="#528253"/>
<rect x="387" y="516" width="75" height="81" fill="#528253"/>
<rect x="387" y="605" width="75" height="81" fill="#528253"/>
<rect x="387" y="693" width="75" height="81" fill="#528253"/>
<rect x="387" y="782" width="75" height="81" fill="#528253"/>
<rect x="304" y="160" width="75" height="81" fill="#528253"/>
<rect x="304" y="249" width="75" height="81" fill="#528253"/>
<rect x="304" y="337" width="75" height="81" fill="#528253"/>
<rect x="304" y="426" width="75" height="81" fill="#528253"/>
<rect x="304" y="516" width="75" height="81" fill="#528253"/>
<rect x="304" y="605" width="75" height="81" fill="#528253"/>
<rect x="304" y="693" width="75" height="81" fill="#528253"/>
<rect x="304" y="782" width="75" height="81" fill="#528253"/>
<path d="M55 159H130V240H55V159Z" fill="#528253"/>
<rect x="55" y="248" width="75" height="81" fill="#528253"/>
<rect x="55" y="336" width="75" height="81" fill="#528253"/>
<rect x="55" y="425" width="75" height="81" fill="#528253"/>
<rect x="55" y="515" width="75" height="81" fill="#528253"/>
<rect x="55" y="604" width="75" height="81" fill="#528253"/>
<rect x="55" y="692" width="75" height="81" fill="#528253"/>
<rect x="55" y="781" width="75" height="81" fill="#528253"/>
<rect x="138" y="159" width="75" height="81" fill="#528253"/>
<rect x="138" y="248" width="75" height="81" fill="#528253"/>
<rect x="138" y="336" width="75" height="81" fill="#528253"/>
<rect x="138" y="425" width="75" height="81" fill="#528253"/>
<rect x="138" y="515" width="75" height="81" fill="#528253"/>
<rect x="138" y="604" width="75" height="81" fill="#528253"/>
<rect x="138" y="692" width="75" height="81" fill="#528253"/>
<rect x="138" y="781" width="75" height="81" fill="#528253"/>
<rect x="221" y="159" width="75" height="81" fill="#528253"/>
<rect x="221" y="248" width="75" height="81" fill="#528253"/>
<rect x="221" y="336" width="75" height="81" fill="#528253"/>
<rect x="221" y="425" width="75" height="81" fill="#528253"/>
<rect x="221" y="515" width="75" height="81" fill="#528253"/>
<rect x="221" y="604" width="75" height="81" fill="#528253"/>
<rect x="221" y="692" width="75" height="81" fill="#528253"/>
<rect x="221" y="781" width="75" height="81" fill="#528253"/>
</g>
<defs>
<filter id="filter0_i" x="55" y="159" width="660" height="708" filterUnits="userSpaceOnUse" color-interpolation-filters="sRGB">
<feFlood flood-opacity="0" result="BackgroundImageFix"/>
<feBlend mode="normal" in="SourceGraphic" in2="BackgroundImageFix" result="shape"/>
<feColorMatrix in="SourceAlpha" type="matrix" values="0 0 0 0 0 0 0 0 0 0 0 0 0 0 0 0 0 0 127 0" result="hardAlpha"/>
<feOffset dx="5" dy="4"/>
<feGaussianBlur stdDeviation="2"/>
<feComposite in2="hardAlpha" operator="arithmetic" k2="-1" k3="1"/>
<feColorMatrix type="matrix" values="0 0 0 0 0 0 0 0 0 0 0 0 0 0 0 0 0 0 0.25 0"/>
<feBlend mode="normal" in2="shape" result="effect1_innerShadow"/>
</filter>
</defs>
</svg>
