<svg width="701" height="746" viewBox="0 0 701 746" fill="none" xmlns="http://www.w3.org/2000/svg">
<rect width="701" height="746" fill="#5B5B5B"/>
<rect x="10" y="10" width="681" height="724" fill="#659F66"/>
<g filter="url(#filter0_i)">
<rect x="603" y="21" width="75" height="81" fill="#528253"/>
<rect x="603" y="110" width="75" height="81" fill="#528253"/>
<rect x="603" y="198" width="75" height="81" fill="#528253"/>
<rect x="603" y="287" width="75" height="81" fill="#528253"/>
<rect x="603" y="377" width="75" height="81" fill="#528253"/>
<rect x="603" y="466" width="75" height="81" fill="#528253"/>
<rect x="603" y="554" width="75" height="81" fill="#528253"/>
<rect x="603" y="643" width="75" height="81" fill="#528253"/>
<rect x="520" y="21" width="75" height="81" fill="#528253"/>
<rect x="520" y="110" width="75" height="81" fill="#528253"/>
<rect x="520" y="198" width="75" height="81" fill="#528253"/>
<rect x="520" y="287" width="75" height="81" fill="#528253"/>
<rect x="520" y="377" width="75" height="81" fill="#528253"/>
<rect x="520" y="466" width="75" height="81" fill="#528253"/>
<rect x="520" y="554" width="75" height="81" fill="#528253"/>
<rect x="520" y="643" width="75" height="81" fill="#528253"/>
<rect x="437" y="20" width="75" height="81" fill="#528253"/>
<rect x="437" y="109" width="75" height="81" fill="#528253"/>
<rect x="437" y="197" width="75" height="81" fill="#528253"/>
<rect x="437" y="286" width="75" height="81" fill="#528253"/>
<rect x="437" y="376" width="75" height="81" fill="#528253"/>
<rect x="437" y="465" width="75" height="81" fill="#528253"/>
<rect x="437" y="553" width="75" height="81" fill="#528253"/>
<rect x="437" y="642" width="75" height="81" fill="#528253"/>
<rect x="354" y="21" width="75" height="81" fill="#528253"/>
<rect x="354" y="110" width="75" height="81" fill="#528253"/>
<rect x="354" y="198" width="75" height="81" fill="#528253"/>
<rect x="354" y="287" width="75" height="81" fill="#528253"/>
<rect x="354" y="377" width="75" height="81" fill="#528253"/>
<rect x="354" y="466" width="75" height="81" fill="#528253"/>
<rect x="354" y="554" width="75" height="81" fill="#528253"/>
<rect x="354" y="643" width="75" height="81" fill="#528253"/>
<rect x="271" y="21" width="75" height="81" fill="#528253"/>
<rect x="271" y="110" width="75" height="81" fill="#528253"/>
<rect x="271" y="198" width="75" height="81" fill="#528253"/>
<rect x="271" y="287" width="75" height="81" fill="#528253"/>
<rect x="271" y="377" width="75" height="81" fill="#528253"/>
<rect x="271" y="466" width="75" height="81" fill="#528253"/>
<rect x="271" y="554" width="75" height="81" fill="#528253"/>
<rect x="271" y="643" width="75" height="81" fill="#528253"/>
<path d="M22 20H97V101H22V20Z" fill="#528253"/>
<rect x="22" y="109" width="75" height="81" fill="#528253"/>
<rect x="22" y="197" width="75" height="81" fill="#528253"/>
<rect x="22" y="286" width="75" height="81" fill="#528253"/>
<rect x="22" y="376" width="75" height="81" fill="#528253"/>
<rect x="22" y="465" width="75" height="81" fill="#528253"/>
<rect x="22" y="553" width="75" height="81" fill="#528253"/>
<rect x="22" y="642" width="75" height="81" fill="#528253"/>
<rect x="105" y="20" width="75" height="81" fill="#528253"/>
<rect x="105" y="109" width="75" height="81" fill="#528253"/>
<rect x="105" y="197" width="75" height="81" fill="#528253"/>
<rect x="105" y="286" width="75" height="81" fill="#528253"/>
<rect x="105" y="376" width="75" height="81" fill="#528253"/>
<rect x="105" y="465" width="75" height="81" fill="#528253"/>
<rect x="105" y="553" width="75" height="81" fill="#528253"/>
<rect x="105" y="642" width="75" height="81" fill="#528253"/>
<rect x="188" y="20" width="75" height="81" fill="#528253"/>
<rect x="188" y="109" width="75" height="81" fill="#528253"/>
<rect x="188" y="197" width="75" height="81" fill="#528253"/>
<rect x="188" y="286" width="75" height="81" fill="#528253"/>
<rect x="188" y="376" width="75" height="81" fill="#528253"/>
<rect x="188" y="465" width="75" height="81" fill="#528253"/>
<rect x="188" y="553" width="75" height="81" fill="#528253"/>
<rect x="188" y="642" width="75" height="81" fill="#528253"/>
</g>
<defs>
<filter id="filter0_i" x="22" y="20" width="660" height="708" filterUnits="userSpaceOnUse" color-interpolation-filters="sRGB">
<feFlood flood-opacity="0" result="BackgroundImageFix"/>
<feBlend mode="normal" in="SourceGraphic" in2="BackgroundImageFix" result="shape"/>
<feColorMatrix in="SourceAlpha" type="matrix" values="0 0 0 0 0 0 0 0 0 0 0 0 0 0 0 0 0 0 127 0" result="hardAlpha"/>
<feOffset dx="5" dy="4"/>
<feGaussianBlur stdDeviation="2"/>
<feComposite in2="hardAlpha" operator="arithmetic" k2="-1" k3="1"/>
<feColorMatrix type="matrix" values="0 0 0 0 0 0 0 0 0 0 0 0 0 0 0 0 0 0 0.25 0"/>
<feBlend mode="normal" in2="shape" result="effect1_innerShadow"/>
</filter>
</defs>
</svg>
